<svg width="41" height="37" viewBox="0 0 41 37" fill="none" xmlns="http://www.w3.org/2000/svg">
<g filter="url(#filter0_d)">
<path fill-rule="evenodd" clip-rule="evenodd" d="M4.5312 16.0858L34.0864 16.0858C34.7653 16.0858 35.3185 16.6016 35.3185 17.2378C35.3185 17.874 34.7653 18.3884 34.0864 18.3884L4.5312 18.3884C3.85232 18.3884 3.2991 17.874 3.2991 17.2378C3.2991 16.6016 3.85232 16.0858 4.5312 16.0858Z" fill="black"/>
<path fill-rule="evenodd" clip-rule="evenodd" d="M20.4456 3.33196C20.7613 3.33196 21.0754 3.44516 21.316 3.66868L35.8285 17.2378L21.316 30.8056C20.8348 31.2555 20.0563 31.2555 19.5751 30.8056C19.0939 30.3556 19.0939 29.6278 19.5751 29.1778L32.3452 17.2378L19.5751 5.29784C19.0939 4.84793 19.0939 4.1186 19.5751 3.66868C19.8157 3.44516 20.1299 3.33196 20.4456 3.33196Z" fill="black"/>
</g>
<defs>
<filter id="filter0_d" x="-0.88562" y="-0.514282" width="41.7143" height="36.6573" filterUnits="userSpaceOnUse" color-interpolation-filters="sRGB">
<feFlood flood-opacity="0" result="BackgroundImageFix"/>
<feColorMatrix in="SourceAlpha" type="matrix" values="0 0 0 0 0 0 0 0 0 0 0 0 0 0 0 0 0 0 127 0" result="hardAlpha"/>
<feOffset dx="1" dy="1"/>
<feGaussianBlur stdDeviation="2"/>
<feColorMatrix type="matrix" values="0 0 0 0 0 0 0 0 0 0 0 0 0 0 0 0 0 0 0.15 0"/>
<feBlend mode="normal" in2="BackgroundImageFix" result="effect1_dropShadow"/>
<feBlend mode="normal" in="SourceGraphic" in2="effect1_dropShadow" result="shape"/>
</filter>
</defs>
</svg>
